<svg xmlns="http://www.w3.org/2000/svg" width="32" height="32" viewBox="0 0 256 256"><path d="M198.22 66.407a6.164 6.164 0 0 0-5.286-1.117L94.306 89.947a6.164 6.164 0 0 0-4.67 5.979v84.82a27.74 27.74 0 1 0 12.329 23.054V100.742l86.3-21.575v76.922a27.74 27.74 0 1 0 12.328 23.054V71.27a6.164 6.164 0 0 0-2.374-4.862zM74.225 219.211a15.41 15.41 0 1 1 15.41-15.41 15.41 15.41 0 0 1-15.41 15.41zm98.628-24.657a15.41 15.41 0 1 1 15.41-15.41 15.41 15.41 0 0 1-15.41 15.41z" style="stroke-width:.770531"/><text xml:space="preserve" x="69.944" y="180.127" style="font-style:normal;font-variant:normal;font-weight:400;font-stretch:normal;font-size:149.333px;font-family:&quot;Comic Sans MS&quot;;-inkscape-font-specification:&quot;Comic Sans MS, Normal&quot;;font-variant-ligatures:no-common-ligatures;font-variant-caps:normal;font-variant-numeric:normal;font-variant-east-asian:normal;white-space:pre;inline-size:127.92;display:inline;fill:#2563eb;fill-opacity:1;stroke:none;stroke-width:26.3176;stroke-linecap:round;stroke-linejoin:round;stroke-dasharray:none;stroke-opacity:1" transform="translate(-30.51 -46.477)scale(1.04225)"><tspan x="69.944" y="180.127">L</tspan></text><text xml:space="preserve" x="121.864" y="130.101" style="font-style:normal;font-variant:normal;font-weight:400;font-stretch:normal;font-size:122.29px;font-family:&quot;Comic Sans MS&quot;;-inkscape-font-specification:&quot;Comic Sans MS, Normal&quot;;font-variant-ligatures:no-common-ligatures;font-variant-caps:small-caps;font-variant-numeric:normal;font-variant-east-asian:normal;fill:#2563eb;fill-opacity:1;stroke:none;stroke-width:17.4674;stroke-linecap:round;stroke-linejoin:round;stroke-dasharray:none;stroke-opacity:1"><tspan x="121.864" y="130.101" style="font-style:normal;font-variant:normal;font-weight:400;font-stretch:normal;font-size:122.29px;font-family:&quot;Comic Sans MS&quot;;-inkscape-font-specification:&quot;Comic Sans MS, Normal&quot;;font-variant-ligatures:no-common-ligatures;font-variant-caps:small-caps;font-variant-numeric:normal;font-variant-east-asian:normal;stroke-width:17.4674">y</tspan></text></svg>